<?xml version="1.0" encoding="utf-8"?>
<!-- Generator: Adobe Illustrator 19.0.0, SVG Export Plug-In . SVG Version: 6.00 Build 0)  -->
<svg version="1.1" id="Layer_1" xmlns="http://www.w3.org/2000/svg" xmlns:xlink="http://www.w3.org/1999/xlink" x="0px" y="0px"
	 viewBox="0 0 512 512" style="enable-background:new 0 0 512 512;" xml:space="preserve">
<style type="text/css">
	.st0{fill:#F9F9F9;}
	.st1{fill:#428BC1;}
</style>
<g id="XMLID_2_">
	<path id="XMLID_4_" class="st0" d="M503.3,196.2C477.4,83.8,375.9,0.4,255.6,0.4c-2.4,0-6.3,0-8.7,0v195.8H503.3"/>
	<path id="XMLID_5_" class="st0" d="M128.2,34.2C68.4,68.8,23.6,127,7.1,196.2h121.1V34.2"/>
	<path id="XMLID_6_" class="st0" d="M7.1,315.8c16.5,69.2,61.3,126.6,121.1,162v-162H7.1z"/>
	<path id="XMLID_7_" class="st0" d="M247,511.6c2.4,0,6.3,0,8.7,0c121.1,0,221.8-83.4,248.5-195.8H247V511.6"/>
	<path id="XMLID_8_" class="st1" d="M503.3,196.2H247V0.4C203.7,2,162.8,13.8,127.4,34.2v162H7.1C3.1,215.1,0,235.6,0,256
		s2.4,40.9,7.1,59.8h121.1v162c34.6,20.4,75.5,32.2,119.5,33.8V315.8h257.2c3.9-18.9,7.1-39.3,7.1-59.8
		C511.2,235.6,508.9,215.1,503.3,196.2"/>
</g>
</svg>
